HIERARCHY
ROOT Hips
{
   OFFSET 0.00000 0.00000 0.00000
   CHANNELS 6 Xposition Yposition Zposition Zrotation Xrotation Yrotation
   JOINT RightUpLeg
   {
      OFFSET -11.629540 -11.267191 0.132148
      CHANNELS 3 Zrotation Xrotation Yrotation
      JOINT RightLeg
      {
         OFFSET 0.000000 -57.749504 1.784510
         CHANNELS 3 Zrotation Xrotation Yrotation
         JOINT RightFoot
         {
            OFFSET 0.329614 -54.720115 -1.898767
            CHANNELS 3 Zrotation Xrotation Yrotation
            JOINT RightToes
            {
               OFFSET 0.052000 -5.739617 11.048829
               CHANNELS 3 Zrotation Xrotation Yrotation
               End Site
               {
                  OFFSET -0.104000 -0.178682 12.713727
               }
            }
         }
      }
   }
   JOINT Spine
   {
      OFFSET 0.000000 15.457650 0.000000
      CHANNELS 3 Zrotation Xrotation Yrotation
      JOINT Spine1
      {
         OFFSET 0.000000 33.354620 0.165962
         CHANNELS 3 Zrotation Xrotation Yrotation
         JOINT HEad
         {
            OFFSET 0.000000 11.354408 0.014743
            CHANNELS 3 Zrotation Xrotation Yrotation
            End Site
            {
               OFFSET -0.377000 16.606459 3.268135
            }
         }
         JOINT LeftShoulder1
         {
            OFFSET 11.687000 -0.470928 -0.286000
            CHANNELS 3 Zrotation Xrotation Yrotation
            JOINT LeftArm
            {
               OFFSET 13.367510 -0.004394 0.418760
               CHANNELS 3 Zrotation Xrotation Yrotation
               JOINT LeftForeArm
               {
                  OFFSET 42.596969 0.128887 -1.851642
                  CHANNELS 3 Zrotation Xrotation Yrotation
                  JOINT LeftHand
                  {
                     OFFSET 35.833589 0.110971 1.328808
                     CHANNELS 3 Zrotation Xrotation Yrotation
                     End Site
                     {
                        OFFSET 21.767590 -0.780000 1.953783
                     }
                  }
               }
            }
         }
         JOINT RightShoulder
         {
            OFFSET -11.687000 -0.470928 -0.286000
            CHANNELS 3 Zrotation Xrotation Yrotation
            JOINT RightArm
            {
               OFFSET -13.367510 -0.004394 0.418760
               CHANNELS 3 Zrotation Xrotation Yrotation
               JOINT RightForeArm
               {
                  OFFSET -42.766227 0.128887 -1.851642
                  CHANNELS 3 Zrotation Xrotation Yrotation
                  JOINT RightHand
                  {
                     OFFSET -35.739729 0.110971 1.328808
                     CHANNELS 3 Zrotation Xrotation Yrotation
                     End Site
                     {
                        OFFSET -21.620562 -0.780000 1.953783
                     }
                  }
               }
            }
         }
      }
   }
   JOINT LeftUpLeg
   {
      OFFSET 11.629540 -11.267191 0.132148
      CHANNELS 3 Zrotation Xrotation Yrotation
      JOINT LeftLeg
      {
         OFFSET 0.000000 -57.749504 1.784510
         CHANNELS 3 Zrotation Xrotation Yrotation
         JOINT LeftFoot
         {
            OFFSET -0.329614 -54.720115 -1.898767
            CHANNELS 3 Zrotation Xrotation Yrotation
            JOINT LeftToes
            {
               OFFSET -0.052000 -5.739617 11.048829
               CHANNELS 3 Zrotation Xrotation Yrotation
               End Site
               {
                  OFFSET 0.104000 -0.061682 12.713727
               }
            }
         }
      }
   }
}
MOTION
Frames: 15
Frame Time: 0.016667
-213.041112 116.234959 -497.046044 67.966509 -51.919031 75.217909 -40.091947 67.416399 55.976802 35.609092 4.756688 -13.657134 -52.300306 33.047846 9.808016 29.053965 -18.282815 -45.356237 -3.798861 98.274060 106.182619 22.725016 -12.046365 -136.670050 -28.595236 24.425860 -13.763345 39.032977 86.146451 -7.428864 230.137705 -42.086062 187.867714 69.639311 30.058023 -48.181039 -96.712637 -73.774478 -139.580025 -4.941012 56.043512 70.200131 109.444137 204.982269 197.980833 16.380826 286.951683 87.636129 1.154151 -6.142569 57.859386 -1.366568 45.239386 17.991693 20.707479 25.485061 110.427186 -42.180492 94.293111 0.600501 29.652262 -2.525213 -60.273599
-212.334840 115.742539 -496.004021 68.248575 -50.936197 74.940098 -42.575854 67.486674 57.162290 35.520798 5.332723 -13.769030 -52.183690 32.746765 9.624064 28.893633 -18.638753 -45.461555 -2.025995 97.989664 104.654481 20.957894 -12.732120 -137.666247 -28.293201 24.263079 -14.272053 36.990303 86.188702 -8.269567 228.078513 -42.796149 185.747281 69.157120 30.910725 -48.753306 -98.828111 -72.174513 -137.804613 -7.121405 55.920364 71.211785 110.253597 201.952028 198.403731 15.552037 284.175676 83.552830 0.179479 -7.282010 56.809873 -2.578208 44.275540 18.168513 19.071871 24.079992 107.297661 -37.306155 93.905457 -2.474116 29.365442 -3.477982 -61.844986
-211.396367 114.780129 -494.604218 67.279289 -51.556737 74.106555 -45.181814 67.516734 58.835038 36.892218 5.746621 -13.468740 -52.154952 31.572331 9.735119 28.439186 -19.457710 -45.223362 0.640249 95.355916 101.531862 18.384318 -15.609870 -138.847664 -27.581935 24.019492 -14.830584 32.898699 86.647875 -10.708196 224.715915 -43.453998 180.937476 65.563252 33.718820 -51.478801 -104.490290 -71.074464 -132.300655 -11.536958 55.423433 74.164093 108.179459 196.063312 197.508922 14.647026 279.549261 81.733486 -0.788107 -8.328768 54.080560 -1.947124 45.156737 18.771378 18.411325 20.226704 104.205444 -46.784378 93.907328 0.043054 30.167255 -2.032425 -60.248607
-210.261895 113.743942 -492.933533 71.141782 -52.195083 76.785198 -49.124633 69.395658 61.616257 36.642315 8.013648 -13.834894 -52.303208 31.158493 9.233026 28.197041 -20.451063 -45.429617 5.509133 98.398007 101.047041 19.411210 -15.664704 -139.025085 -26.770619 23.468243 -15.344922 31.644219 86.017558 -7.428457 226.300082 -38.998317 178.720533 65.498953 31.637542 -53.216220 -104.692689 -69.812006 -133.408115 -14.606329 55.592245 76.884079 106.730954 188.821536 193.381165 12.701632 270.669113 81.326215 -1.209458 -8.995413 52.745589 -2.807819 46.421439 19.148543 17.681113 19.982290 102.860443 -41.607549 92.803693 -1.996447 29.988666 -2.541574 -61.224245
-208.825356 112.285584 -491.008026 73.086282 -53.032147 77.109386 -53.446087 70.423478 64.717545 35.953914 9.899208 -14.563995 -52.847469 30.500288 8.489928 27.762390 -21.735422 -45.512641 10.212586 98.847980 98.961730 17.015427 -17.312342 -139.959770 -26.527703 22.395646 -15.645356 27.918578 84.892565 -6.820171 226.261996 -35.238831 174.805059 61.953019 32.236341 -53.940012 -104.854161 -68.795434 -135.021078 -19.668754 56.410577 79.837808 106.301724 177.590519 189.340821 10.747728 260.381646 78.773644 -1.787014 -10.255638 51.599555 -4.546775 48.187558 18.492835 16.877618 18.538394 103.273553 -44.917578 92.006125 -2.107633 30.146420 -2.636894 -61.729201
-207.151257 110.644348 -488.977387 74.126732 -53.012243 78.128335 -56.606764 71.331921 67.920077 36.144432 10.818741 -15.028996 -53.602689 30.196956 8.301622 27.001452 -23.390148 -45.160900 13.935978 99.223278 98.703952 15.274595 -18.958507 -141.035784 -26.719341 20.021719 -15.757212 22.586208 81.714573 -6.625009 225.641392 -36.996020 172.377500 59.336633 30.899475 -55.775796 -103.941061 -68.143021 -137.845184 -24.787943 58.298205 82.062203 106.163188 165.319511 184.550209 9.568736 247.614138 78.578594 -1.509796 -10.923800 50.721074 -7.142264 48.494340 17.610545 17.290072 16.451388 104.405828 -48.775262 91.085982 -1.610845 30.129177 -2.906948 -62.091542
-205.222909 108.984307 -486.855194 74.236725 -53.332627 78.074834 -60.689352 71.847832 71.322946 36.100497 11.111832 -15.503553 -54.699631 30.058553 8.200370 25.876957 -25.658067 -44.652112 17.417283 99.612736 98.346378 12.575294 -20.994917 -141.570916 -28.452162 15.890783 -15.478780 15.525934 78.797884 -8.611846 224.811196 -38.331981 167.340509 56.973388 29.857837 -59.308964 -103.261088 -66.725546 -140.675314 -29.351850 59.757216 84.734876 107.837513 149.243007 178.325939 8.078230 232.808473 76.721384 -1.473191 -12.281150 51.408197 -9.608509 48.419235 16.112761 18.159999 15.343332 106.277279 -49.425752 89.573881 -2.890312 29.759476 -3.870572 -63.163732
-203.157403 108.993252 -484.756157 74.350031 -56.457456 77.786641 -63.858205 71.946194 75.661905 36.514772 13.312594 -14.639829 -55.364059 30.287945 8.958071 24.743364 -27.580128 -43.076719 18.685528 97.442880 94.979661 9.685652 -26.403889 -143.243014 -30.791504 13.873146 -14.660905 4.074684 74.549835 -13.089125 219.687202 -42.429501 165.157184 53.611664 27.829288 -63.763245 -101.791873 -63.781242 -144.423981 -35.521918 58.596999 85.463767 111.865829 125.200742 171.355472 6.288131 217.431668 71.265190 2.590255 -10.219712 46.729316 -10.469318 49.951701 14.484664 20.113321 14.911222 107.929570 -50.384926 87.476685 -3.985082 29.116021 -5.108097 -63.828917
-201.050698 108.449477 -482.797158 81.181586 -61.157418 85.430633 -67.300354 73.809770 80.704573 36.638856 17.307517 -12.783182 -51.917712 31.045419 9.899487 24.130362 -28.894559 -41.377600 21.586232 94.994660 95.567638 6.877514 -32.621489 -145.277413 -33.877257 14.162078 -13.265198 -0.186680 67.611612 -13.546128 223.734061 -46.717555 174.654453 52.724532 23.689937 -60.648494 -101.898704 -60.735524 -146.300425 -37.709201 53.046763 85.244634 120.470398 100.865747 165.240294 1.195176 198.613841 62.422841 1.400562 -10.805459 43.361166 -9.105475 55.324399 13.522501 22.623036 15.491709 109.524358 -50.591003 85.395622 -4.046406 28.264822 -6.448880 -63.863102
-199.163052 107.796048 -481.163208 103.901644 -70.582048 107.148121 -73.808308 77.203759 88.589370 32.690614 24.986985 -10.050432 -48.279264 32.234859 10.977940 23.732488 -29.703554 -39.225664 21.817289 98.549009 101.571613 10.689031 -25.225687 -139.735207 -33.892474 17.635858 -12.088899 4.551779 62.606340 -10.819295 239.417692 -50.866488 188.496091 48.177579 22.188216 -56.125847 -100.534722 -58.407372 -151.143713 -40.478788 62.286968 86.193142 118.787167 92.439971 165.568949 0.585974 186.028180 64.023202 -3.987683 -12.712174 35.679330 -3.384569 65.309743 13.463112 24.587844 17.746112 110.815721 -49.315158 83.539852 -2.956290 27.280233 -7.589241 -63.208162
-197.341363 106.978110 -479.841568 149.300941 -80.015625 147.852654 -77.170885 75.025045 94.563969 27.854654 31.210006 -6.403199 -46.090188 33.272631 11.366778 22.817340 -30.128149 -36.153902 22.897980 107.529703 114.663071 12.625622 -12.495599 -131.587201 -28.866155 21.560336 -10.537612 17.616053 58.635767 1.838731 255.849078 -53.011007 208.359893 52.765015 14.050655 -46.854609 -106.719534 -67.386653 -147.736705 -43.295326 63.925626 78.211574 111.799070 91.988250 176.382382 7.910541 176.046719 66.474761 -11.556748 -11.792235 32.124661 1.393906 72.922508 14.197640 23.687608 19.923493 108.666609 -46.724139 81.959033 -2.086180 26.318099 -8.986092 -62.778106
-195.644166 106.169194 -478.569024 204.696384 -84.982156 198.539734 -76.862216 68.820651 93.867215 24.450966 27.887420 -1.802465 -45.142677 31.496789 9.715498 21.134663 -31.474198 -33.319828 20.875331 105.079045 116.077713 6.391830 3.230830 -133.004506 -22.326509 22.571229 -7.888260 23.732452 60.291910 7.897677 265.839732 -58.599301 229.530775 55.819407 10.969775 -36.387918 -106.840121 -51.777683 -158.968186 -49.556615 57.913939 71.560356 111.133414 79.871488 186.665477 9.029547 162.534706 57.985485 -12.211652 -10.192391 33.864409 1.961472 72.374167 14.673941 18.397903 21.392998 102.841209 -46.480578 81.237191 -3.477949 25.541045 -10.758700 -63.899473
-193.909909 105.639809 -477.779419 247.923053 -87.656551 242.166707 -72.749055 65.959109 88.863630 25.635286 25.773770 3.465387 -44.168733 29.723945 8.159440 19.490951 -33.487355 -30.892437 17.288705 100.150039 117.629736 7.977618 5.465574 -128.809021 -18.818938 19.669755 -3.174988 29.839071 64.117704 11.232365 278.527956 -64.516498 245.549918 60.988467 10.941834 -27.696443 -114.616940 -69.374054 -157.394879 -53.641348 55.720345 74.936498 110.484751 66.383387 187.998744 8.595577 145.578693 49.288650 -15.243304 -10.880797 32.027095 3.186443 69.795347 16.833515 16.460148 21.898140 97.801684 -46.676823 79.829660 -4.310839 24.547934 -12.086628 -64.373201
-192.653367 105.283097 -477.290986 280.651517 -91.394468 276.979388 -68.183347 63.131042 82.300521 28.685244 26.682417 11.792083 -30.028428 24.929337 5.985911 16.827069 -38.099926 -28.842540 11.594231 93.658218 112.596700 6.318010 4.490528 -128.874523 -16.618786 15.723659 1.385643 30.763179 65.300836 10.544313 293.611391 -66.806319 268.027141 63.348406 7.677442 -17.324380 -117.424708 -62.482489 -168.310368 -58.397339 54.748723 80.698186 109.406230 53.261289 179.257618 6.481701 131.376175 42.009843 -16.746727 -11.921048 31.120999 2.291291 65.852258 20.045716 16.229901 22.914139 94.326128 -46.917331 77.475088 -4.789272 23.363791 -13.204492 -64.629210
-191.748559 104.732064 -477.360489 315.450757 -92.518717 312.184970 -63.872753 62.231739 76.135586 26.852146 27.260472 21.292109 -15.288747 25.926782 2.577384 16.187622 -39.869682 -29.186518 14.772690 91.622644 111.726363 12.878264 3.545206 -125.958647 -14.336736 7.899205 5.581318 35.326247 64.431490 12.685878 312.284500 -67.389467 287.064818 64.475285 7.118018 -6.556062 -122.190199 -71.201826 -169.129937 -54.174888 51.091229 83.427557 105.912936 50.455758 194.241059 10.494008 129.570109 46.305493 -17.442367 -12.776796 32.088912 1.516856 63.118809 24.336138 15.476906 24.241422 90.611735 -47.719246 73.911984 -5.613550 22.428396 -14.239088 -65.234952
